<svg xmlns="http://www.w3.org/2000/svg" width="500" height="500" style="width:100%;height:100%"><defs><clipPath id="a"><path d="M0 0h500v500H0z"/></clipPath><mask id="b"><g display="block"><path fill="red" d="M42.39-38.47l-84.91.04v58.89l84.93-.04-.02-58.89z" transform="matrix(3.74 0 0 3.74 250 283.66)"/><g fill-opacity="0"><path fill="#131432" d="M22.891-57.847l-84.914.039V1.081l84.929-.039-.015-58.889z" transform="matrix(3.74 0 0 3.74 322.93 356.123)"/><path stroke="#131432" stroke-width="0" d="M408.542 139.775l-317.578.146v220.244l317.634-.145-.056-220.245z"/></g></g></mask></defs><g clip-path="url(#a)"><g mask="url(#b)" display="block"><g fill="none"><path d="M154.63 139.67H92.92m61.71 72.463H92.92m61.71 74.568H92.92m61.71 73.865H92.92"/><path stroke-linecap="round" stroke-linejoin="round" stroke="#121331" stroke-width="13.09" d="M154.63 139.67H92.92m61.71 72.463H92.92m61.71 74.568H92.92m61.71 73.865H92.92"/></g><g fill="none"><path d="M407.08 139.67h-61.71m61.71 72.463h-61.71m61.71 74.568h-61.71m61.71 73.865h-61.71"/><path stroke-linecap="round" stroke-linejoin="round" stroke="#121331" stroke-width="13.09" d="M407.08 139.67h-61.71m61.71 72.463h-61.71m61.71 74.568h-61.71m61.71 73.865h-61.71"/></g><g fill="none"><path d="M345.583 139.932l-190.833.292v220.244l190.893-.291-.06-220.245z"/><path stroke-linecap="round" stroke-linejoin="round" stroke="#121331" stroke-width="13.09" d="M345.583 139.932l-190.833.292v220.244l190.893-.291-.06-220.245z"/></g><path stroke-linecap="round" stroke-linejoin="round" stroke="#2B6FE3" stroke-width="13.09" d="M233.17 207.925v86.02l43.01-44.087-43.01-41.933z" fill="none"/><g><g fill="none"><path d="M154.63-81.925H92.92m61.71 72.463H92.92m61.71 74.568H92.92m61.71 73.865H92.92"/><path stroke-linecap="round" stroke-linejoin="round" stroke="#121331" stroke-width="13.09" d="M154.63-81.925H92.92m61.71 72.463H92.92m61.71 74.568H92.92m61.71 73.865H92.92"/></g><g fill="none"><path d="M407.08-81.925h-61.71m61.71 72.463h-61.71m61.71 74.568h-61.71m61.71 73.865h-61.71"/><path stroke-linecap="round" stroke-linejoin="round" stroke="#121331" stroke-width="13.09" d="M407.08-81.925h-61.71m61.71 72.463h-61.71m61.71 74.568h-61.71m61.71 73.865h-61.71"/></g><g fill="none"><path d="M345.583-81.663l-190.833.292v220.244l190.893-.291-.06-220.245z"/><path stroke-linecap="round" stroke-linejoin="round" stroke="#121331" stroke-width="13.09" d="M345.583-81.663l-190.833.292v220.244l190.893-.291-.06-220.245z"/></g><path stroke-linecap="round" stroke-linejoin="round" stroke="#2B6FE3" stroke-width="13.09" d="M233.17-13.67v86.02l43.01-44.087-43.01-41.933z" fill="none"/></g></g><g fill="none" display="block"><path d="M408.542 139.775l-317.578.146v220.244l317.634-.145-.056-220.245z"/><path stroke-linecap="round" stroke-linejoin="round" stroke="#121331" stroke-width="13.09" d="M408.542 139.775l-317.578.146v220.244l317.634-.145-.056-220.245z"/></g></g></svg>