<svg xmlns="http://www.w3.org/2000/svg" width="500" height="500" style="width:100%;height:100%"><defs><clipPath id="a"><path d="M0 0h500v500H0z"/></clipPath></defs><g display="block" clip-path="url(#a)"><path stroke-linecap="round" stroke-linejoin="round" stroke="#121330" stroke-width="12.04" d="M350.804 288.582v35.138H149.196v-35.138M290.51 104.34h108.04v184.24h-297.1V104.34h108.04" fill="none"/><path stroke-linecap="round" stroke-linejoin="round" stroke="#121330" stroke-width="12.04" d="M290.513 120.805h-81.026V85.667h81.026v35.138zM224.551 323.72l-26.316 86.4h-34.868l26.316-86.4M273.078 323.72l27.328 86.4h34.868l-27.328-86.4" fill="none"/><path stroke-linecap="round" stroke-linejoin="round" stroke="#2B6FE3" stroke-width="12.04" d="M147.392 165.322c25.909-25.909 40.114 11.411 66.541 16.87 22.368 4.621 43.773-39.384 66.795-8.205 11.943 16.174-.341 74.198-75.813 70.855-26.145-1.158-100.281-36.762-57.523-79.52zM314.268 224.793c0 12.855 10.421 23.276 23.276 23.276s23.276-10.421 23.276-23.276-10.421-23.276-23.276-23.276-23.276 10.421-23.276 23.276z" fill="none"/></g></svg>