<svg xmlns="http://www.w3.org/2000/svg" width="500" height="500" style="width:100%;height:100%"><defs><clipPath id="b"><path d="M0 0h500v500H0z"/></clipPath><filter id="a" filterUnits="objectBoundingBox" x="0%" y="0%" width="100%" height="100%"><feComponentTransfer in="SourceGraphic"><feFuncA type="table" tableValues="1.0 0.0"/></feComponentTransfer></filter><mask id="c"><g filter="url(#a)"><g display="block"><path fill="red" d="M-20.317-10.617v60.084L0 26.629l20.317 22.838v-60.084" transform="translate(182.184 174.033)"/><path stroke-linecap="round" stroke-linejoin="round" fill-opacity="0" stroke="#121331" stroke-width="0" d="M161.867 163.416V223.5l20.317-22.838 20.317 22.838v-60.084"/></g></g></mask></defs><g clip-path="url(#b)"><g display="block"><path stroke-linecap="round" stroke-linejoin="round" stroke="#2B6FE3" stroke-width="12.6" d="M114.769 376.253v-75.648M153.622 338.429h104.41M301.025 338.429h46.06" fill="none"/><path stroke-linecap="round" stroke-linejoin="round" stroke="#121331" stroke-width="12.6" d="M361.337 405.754c33.547 0 60.634-26.158 60.634-67.73 0-37.408-27.147-67.74-60.634-67.74H78.029s0 0 0 0c0 16.746 13.575 30.322 30.321 30.322l243.784-.001c20.89 0 37.824 16.934 37.824 37.824 0 0 0 0 0 0 0 20.89-16.934 37.824-37.824 37.824l-244.606.001c-16.292 0-29.499 13.208-29.499 29.5 0 0 0 0 0 0h283.308z" fill="none"/></g><path stroke-linecap="round" stroke-linejoin="round" stroke="#121331" stroke-width="12.6" d="M202.501 161.552v-36.986m-40.634 0v38.125" fill="none" display="block"/><g mask="url(#c)" display="block"><path stroke-linecap="round" stroke-linejoin="round" stroke="#121331" stroke-width="12.6" d="M385.231 200.215v-75.648M346.378 162.391h-104.41" fill="none"/><path stroke-linecap="round" stroke-linejoin="round" stroke="#2B6FE3" stroke-width="12.6" d="M421.971 229.716s0 0 0 0c0-16.292-13.207-29.5-29.499-29.5l-244.606-.001c-20.89 0-37.824-16.934-37.824-37.824 0 0 0 0 0 0 0-20.89 16.934-37.824 37.824-37.824l243.784.001c16.746 0 30.321-13.576 30.321-30.322 0 0 0 0 0 0H138.663c-33.487 0-60.634 30.332-60.634 67.74 0 41.572 27.087 67.73 60.634 67.73h283.308z" fill="none"/></g><path stroke-linecap="round" stroke-linejoin="round" stroke="#121331" stroke-width="12.6" d="M161.867 163.416V223.5l20.317-22.838 20.317 22.838v-60.084" fill="none" display="block"/></g></svg>